<svg id="Layer_3" data-name="Layer 3" xmlns="http://www.w3.org/2000/svg" viewBox="0 0 500 500"><defs><style>.cls-1{fill:#b82e24;}.cls-2{fill:#1d191a;}</style></defs><title>cms-admin-signin-original</title><path class="cls-1" d="M141.58,219.39s25,3.67,38.71,15.29,14.9,21.09,7.74,28.26-17.42,11.22-31.55,14.32-37.74,3.68-37.74,3.68-23-.2-33.48-2.91-7.16-7.93-1.94-10.45,14.52-6,28.65-8.52c0,0-20.91-.19-37.74,7.36s-5,13-5,13,16.26,11,66.78,11,67.16-7.74,67.16-7.74,23.42-7.94,23.42-23-21.87-25.75-21.87-25.75S180.87,219.19,141.58,219.39Z"/><path class="cls-2" d="M254.11,262l-3.57-2.74a18.07,18.07,0,0,1-4.77-5.11A12.89,12.89,0,0,1,247,240.46a8.83,8.83,0,0,1,7-3.06,11.39,11.39,0,0,1,7.53,2.92v6.74q-3.54-4.31-7.62-4.31a5.4,5.4,0,0,0-3.77,1.34,4.45,4.45,0,0,0-1.48,3.45,6.15,6.15,0,0,0,1.09,3.49,14.73,14.73,0,0,0,3.49,3.41l3.58,2.69a13.89,13.89,0,0,1,6,11.54,12.12,12.12,0,0,1-2.64,8.11,8.58,8.58,0,0,1-6.86,3.11,12.55,12.55,0,0,1-8.83-3.78v-7.54q3.8,6.1,8.79,6.1a4.81,4.81,0,0,0,3.66-1.56,5.42,5.42,0,0,0,1.47-3.89C258.42,266.7,257,264.3,254.11,262Z"/><path class="cls-2" d="M265.19,237.88h27.35v5.28H281.13v36.26h-4.71V243.16H265.19Z"/><path class="cls-2" d="M310.05,279.42V237.88h10.38a9.43,9.43,0,0,1,7.48,3.2,12.68,12.68,0,0,1,2.79,8.62,13.91,13.91,0,0,1-1.43,6.41,8.93,8.93,0,0,1-3.91,4.05,16.14,16.14,0,0,1-7.13,1.26h-3.47v18Zm9.56-36.26h-4.85v13h5.14a5.63,5.63,0,0,0,4.4-1.71,7,7,0,0,0,1.55-4.88Q325.85,243.16,319.61,243.16Z"/><path class="cls-2" d="M341.39,237.7h3.29l14.68,41.72h-4.79l-4.37-12.29h-14l-4.09,12.29h-4.81Zm6.89,24.14-5.29-15-4.9,15Z"/><path class="cls-2" d="M384.77,237.94h4.71v23.54a35,35,0,0,1-.55,7.22,18.21,18.21,0,0,1-1.36,4.05,12.59,12.59,0,0,1-2,2.9,13.63,13.63,0,0,1-22.42-2.9,17.45,17.45,0,0,1-1.33-4,37.06,37.06,0,0,1-.53-7.37V237.94H366v23.54q0,5.85,1.06,8.14a8.5,8.5,0,0,0,3.21,3.67,9.2,9.2,0,0,0,5.08,1.38,9,9,0,0,0,6.8-2.76,8.85,8.85,0,0,0,2-3.51,26.8,26.8,0,0,0,.61-6.92Z"/><path class="cls-2" d="M396,237.94h4.69V274H415.4v5.41H396Z"/><path class="cls-2" d="M427.61,262l-3.56-2.74a18.07,18.07,0,0,1-4.77-5.11,12.83,12.83,0,0,1,1.27-13.73,8.83,8.83,0,0,1,7-3.06,11.37,11.37,0,0,1,7.52,2.92v6.74c-2.36-2.87-4.89-4.31-7.61-4.31a5.44,5.44,0,0,0-3.78,1.34,4.48,4.48,0,0,0-1.47,3.45,6.21,6.21,0,0,0,1.08,3.49,15,15,0,0,0,3.5,3.41l3.58,2.69a13.88,13.88,0,0,1,6,11.54,12.17,12.17,0,0,1-2.63,8.11,8.59,8.59,0,0,1-6.86,3.11,12.59,12.59,0,0,1-8.84-3.78v-7.54q3.81,6.1,8.79,6.1a4.81,4.81,0,0,0,3.67-1.56,5.42,5.42,0,0,0,1.47-3.89C431.93,266.7,430.49,264.3,427.61,262Z"/><polygon class="cls-2" points="74.73 299.95 69.63 300 205.52 199.38 239.81 258.48 236.28 258.46 204.61 203.78 74.73 299.95"/></svg>